# xmcd
#
# Track frame offsets: 
#        150
#        18248
#        39242
#        58541
#        70665
#        91445
#        109567
#        129698
#        147115
#        163415
#        181349
#        196064
#
# Disc length: 2786 seconds
#
# Revision: 0
# Processed by: cddbd v1.5.2PL0 Copyright (c) Steve Scherf et al.
# Submitted via: ExactAudioCopy v1.0b3
#
DISCID=9c0ae00c
DTITLE=Roline - 2 o'Clock Bus
DYEAR=2005
DGENRE=Folk
TTITLE0=Never Waking Up
TTITLE1=Your Still Revenge
TTITLE2=I Might
TTITLE3=Quiet Night in August
TTITLE4=Ballad For a Friend
TTITLE5=Because of You
TTITLE6=2 o'Clock Bus
TTITLE7=Simple Song
TTITLE8=These Words
TTITLE9=May Have Been
TTITLE10=The Things I Say
TTITLE11=Relief
EXTD=
EXTT0=
EXTT1=
EXTT2=
EXTT3=
EXTT4=
EXTT5=
EXTT6=
EXTT7=
EXTT8=
EXTT9=
EXTT10=
EXTT11=
PLAYORDER=
